<?xml version="1.0" encoding="UTF-8" standalone="no"?>
<svg xmlns="http://www.w3.org/2000/svg" viewBox="0 0 128 128">
  <style type="text/css">
    path { fill:black; stroke:none; }
    @media (prefers-color-scheme: dark) { path { fill:white; } }
  </style>
  <path d="m 59.328735,0 c -5.708146,-0.16517035 -9.64547,5.6209331 -8.762501,10.953486 0.552646,3.506893 -0.08828,6.00736 -4.241668,6.153605 -3.06491,2.41633 -5.327722,1.261713 -7.394811,-1.543931 -2.858539,-3.398979 -7.293036,-6.4433567 -11.84353,-4.250654 -4.503954,2.708925 -7.674169,7.174665 -11.557083,10.663349 -4.136768,3.794474 -2.998753,10.595714 1.301748,13.746658 2.068008,2.045864 5.11741,3.880666 1.970199,6.735012 -0.863469,3.910516 -2.782709,5.895511 -6.799264,4.990057 C 7.5650039,46.971468 2.3537685,48.25235 0.63958211,52.863397 -0.60808307,57.998124 0.25717365,63.410326 0,68.67132 c -0.16421905,5.707967 5.6207909,9.647569 10.954318,8.763754 3.506346,-0.552383 6.006238,0.08767 6.152776,4.240418 2.65118,3.245907 1.027735,5.54279 -1.814786,7.706125 -3.375021,2.724281 -6.0641194,7.175818 -3.980634,11.533463 2.774823,4.53199 7.19896,7.80867 10.739121,11.74662 3.996247,4.01926 10.804657,2.68833 13.950982,-1.67801 2.061363,-2.80627 4.221181,-4.31002 7.233192,-1.42074 4.164286,0.47144 4.704241,3.23181 4.210419,6.79854 -0.567646,4.61278 1.265507,9.96522 6.188748,11.28127 5.239878,0.7029 10.600658,0.24604 15.890662,0.3168 5.363766,-0.38236 8.686776,-5.88416 7.910196,-10.91381 -0.55147,-3.50557 0.08607,-6.00849 4.239583,-6.15361 3.246369,-2.65183 5.543526,-1.02771 7.707226,1.81452 2.86063,3.67671 7.938979,6.27045 12.376637,3.60446 4.12305,-3.3055 7.73909,-7.276 11.4675,-11.02701 3.52786,-4.26087 1.66867,-10.50194 -2.50028,-13.54303 -3.47834,-2.088943 -3.18703,-4.633995 -0.82029,-7.74345 0.20314,-4.252409 3.72123,-3.493173 6.8173,-3.446179 4.80656,0.679458 10.27831,-1.862206 11.11825,-7.042387 0.24823,-5.269934 0.27007,-10.599999 -0.003,-15.868863 -0.87684,-5.181418 -6.3218,-7.767231 -11.1555,-7.073807 -3.51198,0.690463 -5.56082,-0.446304 -5.8353,-4.302918 -2.655,-3.189602 -0.87534,-5.425024 1.83846,-7.586848 3.35156,-2.768573 6.10464,-7.202686 4.00195,-11.590243 -2.71879,-4.503844 -7.16109,-7.675989 -10.67661,-11.559216 -3.78677,-4.141574 -10.586126,-2.989518 -13.734067,1.303083 -2.045544,2.068837 -3.881454,5.11734 -6.735731,1.969024 C 81.630464,17.937058 79.64765,16.016027 80.552503,12.000715 80.997012,7.5643149 79.817298,2.3498141 75.134877,0.63887598 70.041214,-0.60656694 64.559304,0.25663463 59.328735,0 Z m -4.706252,33.047513 c 4.179867,-0.729795 11.512428,6.197929 9.952398,6.961049 -4.584006,-1.724629 -9.399298,0.301086 -12.265091,3.982679 -4.139241,4.135427 -8.278483,8.270855 -12.417724,12.406282 3.010276,1.620928 -0.614767,3.239013 -1.811154,4.858139 -1.573678,2.770652 -3.152522,1.834865 -4.733136,-0.371348 -2.227044,-2.230459 -4.454087,-4.460917 -6.681131,-6.691376 1.830278,-1.830417 3.660557,-3.660834 5.490835,-5.491251 1.611648,3.050457 3.189214,0.0081 4.775881,-1.407288 4.570891,-4.322467 8.670193,-9.200833 13.60234,-13.098954 1.230715,-0.730476 2.651105,-1.155313 4.086782,-1.147932 z m 33.133764,3.286252 c 5.337179,-0.607268 4.242769,1.815294 1.292885,4.216594 -5.807593,3.634349 -3.43236,13.548367 4.201125,10.498032 2.901087,0.62648 7.283943,-6.637226 7.969863,-2.896907 1.68459,9.549706 -8.833897,18.102735 -17.835292,14.618244 -2.853146,-2.566729 -4.299444,1.588863 -6.325285,3.155685 -4.34784,2.543434 -0.636028,4.878464 2.03272,7.24013 4.655382,4.455649 9.311352,8.910683 13.966902,13.366157 -2.806946,2.806946 -5.613891,5.613892 -8.420837,8.420838 C 78.765914,88.829165 72.896178,82.703223 67.027488,76.576281 62.554838,81.255695 58.187677,86.098633 53.6496,90.667676 47.784263,94.35308 42.928465,84.536446 48.771939,81.718983 53.015035,78.08155 57.258131,74.444118 61.501227,70.806685 56.156783,65.209045 50.812338,59.611404 45.467894,54.013764 c 2.217639,-2.217501 4.435278,-4.435003 6.652917,-6.652504 5.77431,5.54794 11.579405,11.063708 17.361669,16.603341 2.403057,-2.060279 4.806113,-4.120558 7.20917,-6.180837 -5.766165,-7.442446 -1.007456,-19.668242 8.327973,-21.174179 l 1.348242,-0.205734 1.388373,-0.07009 z m -44.960431,1.742917 c 2.761125,1.616897 -1.342325,3.234246 -2.316197,4.851389 -1.004097,1.56083 -4.450665,4.318758 -3.784737,1.249931 2.033645,-2.033774 4.067289,-4.067547 6.100934,-6.10132 z" />
</svg>
