<?xml version="1.0" encoding="UTF-8" standalone="no"?>
<svg xmlns="http://www.w3.org/2000/svg"
   version="1.0"
   width="609.99945"
   height="610.00037">
  <ellipse
     ry="205.97191"
     rx="214.05759"
     cy="305.00021"
     cx="304.99976"
     id="path914"
     style="fill:#ffffff;fill-opacity:1;stroke-width:4.883;stroke-linecap:round;stroke-linejoin:round" />
  <path
     id="path2787"
     style="fill:#424242;fill-opacity:1;stroke:none;stroke-width:4.88301;stroke-miterlimit:4;stroke-dasharray:none;stroke-opacity:1"
     d="m 283.10334,5 c -5.39547,0 -10.54691,1.0117399 -15.46875,3.0527399 -4.82906,1.9970601 -9.2344,4.9160501 -13.22851,8.7734401 l -0.27735,0.27929 c -3.95016,3.925747 -6.95217,8.314498 -8.98828,13.187497 -2.0703,4.94137 -3.11133,10.229539 -3.11133,15.86914 v 32.406251 c -1.66014,0.473628 -3.34376,0.971676 -5.05273,1.494139 -5.13668,1.572247 -10.08891,3.28127 -14.83008,5.126961 -0.21484,0.083 -0.42871,0.171828 -0.63867,0.269526 -4.93649,1.914049 -9.44828,3.81251 -13.53516,5.697261 -1.5869,0.732409 -3.17872,1.490239 -4.77539,2.28125 l -26.56836,-26.18164 c -3.80368,-3.989219 -8.10941,-7.065439 -12.95312,-9.179679 -4.94137,-2.15819 -10.22563,-3.25782 -15.875,-3.25782 -5.57124,0 -10.8438,1.08499 -15.83399,3.20899 -4.83394,2.06053 -9.24222,5.07229 -13.24609,9.007811 l -0.10352,0.103518 -40.800783,40.898425 -0.0234,-0.0254 c -3.9697,3.96968 -6.99806,8.43852 -9.09765,13.40429 -2.119117,5.01461 -3.167967,10.26861 -3.167967,15.78126 0,5.52242 1.05373,10.82425 3.187497,15.86327 2.08495,4.93648 5.14164,9.40336 9.17969,13.37306 l 0.01,0.006 22.857423,22.92967 c -0.830072,1.45018 -1.640623,2.89942 -2.421873,4.34961 -2.35349,4.35055 -4.65432,9.0147 -6.91016,13.95118 -2.18748,4.78023 -4.20314,9.56058 -6.05859,14.33593 -0.72265,1.85057 -1.40626,3.65138 -2.05078,5.4043 H 46.16612 c -5.61031,0 -10.86234,0.9922 -15.76953,2.99414 -4.91207,2.00194 -9.35549,4.99027 -13.35938,8.98438 l -0.0254,0.0234 -0.0293,0.0254 -0.004,0.004 C 12.9844,243.44058 9.9999804,247.88988 7.99804,252.79706 5.99611,257.70425 5,262.95824 5,268.56854 v 58.32813 c 0,5.3857 1.01075,10.53715 3.04687,15.45898 1.99705,4.82907 4.92191,9.2393 8.7793,13.22852 l 0.2832,0.29297 c 3.92086,3.95505 8.31059,6.95216 13.18359,8.98827 4.94137,2.0703 10.22856,3.11134 15.87305,3.11134 h 32.404297 c 0.47363,1.66014 0.96973,3.33888 1.49219,5.05273 1.57225,5.13668 3.28126,10.08304 5.12695,14.82422 1.94334,5.03902 3.91701,9.78031 5.92383,14.21875 0.75195,1.67479 1.55273,3.38379 2.39258,5.12694 L 67.33984,433.29315 c -4.03317,3.82809 -7.1299,8.15922 -9.26367,13.0371 -2.15819,4.94137 -3.25586,10.22466 -3.25586,15.87891 0,5.56636 1.07911,10.8399 3.20312,15.83008 2.06053,4.83395 5.0723,9.24807 9.00782,13.25195 l 40.92187,41.39453 c 0.13184,0.1416 0.27442,0.27929 0.41602,0.40625 l -0.006,0.01 c 4.03805,3.75974 8.48148,6.59279 13.34961,8.51172 4.87789,1.92382 10.03521,2.875 15.47461,2.875 5.45894,0 10.65433,-0.96096 15.55664,-2.89454 4.88277,-1.92381 9.34964,-4.78615 13.37304,-8.59961 0.1709,-0.166 0.33691,-0.33105 0.49805,-0.50195 l 22.83203,-23.19336 c 1.42089,0.81054 2.84083,1.60059 4.26172,2.36719 4.35544,2.34862 9.01859,4.65432 13.95508,6.91016 4.77535,2.18748 9.55668,4.19826 14.33203,6.05859 1.85058,0.72265 3.65139,1.40137 5.4043,2.05078 v 37.15235 c 0,5.61028 0.9961,10.85941 2.99804,15.77148 2.00193,4.91695 5.0059,9.37602 9.00977,13.38476 l -0.0254,0.0234 c 8.02728,8.02727 17.71592,11.98244 29.18555,11.98244 h 58.3281 c 5.39547,0 10.54691,-1.01077 15.46875,-3.04689 4.82418,-2.00194 9.23441,-4.92679 13.22852,-8.7793 l 0.27734,-0.2832 c 3.95993,-3.92575 6.95314,-8.31547 8.99414,-13.18359 2.07032,-4.94625 3.11132,-10.23344 3.11132,-15.87305 v -32.41211 c 1.6602,-0.47363 3.3438,-0.97168 5.0527,-1.49414 5.1318,-1.57225 10.0792,-3.2754 14.8204,-5.1211 5.0439,-1.94821 9.7949,-3.92579 14.2382,-5.92773 1.6602,-0.75194 3.3682,-1.54882 5.1114,-2.38867 l 26.0937,26.16211 c 3.8135,4.02341 8.1876,7.12404 13.1387,9.26758 5,2.1533 10.3223,3.25586 15.9668,3.25586 5.7665,0 11.0996,-1.07816 16.0312,-3.20704 4.8828,-2.0996 9.2335,-5.19437 13.0957,-9.24218 l 41.1622,-40.68946 c 0.1416,-0.13672 0.2783,-0.2832 0.4101,-0.41992 v 0.006 c 3.7646,-4.03318 6.5967,-8.48148 8.5156,-13.3496 1.919,-4.88278 2.8711,-10.03521 2.8711,-15.47461 0,-5.45895 -0.957,-10.65434 -2.8906,-15.55665 -1.9287,-4.88277 -4.7901,-9.34963 -8.5937,-13.37304 -0.1758,-0.17579 -0.337,-0.33692 -0.5079,-0.49805 l -23.1933,-22.83203 c 0.8105,-1.42089 1.6015,-2.84181 2.373,-4.26758 2.3438,-4.35054 4.6436,-9.01273 6.9043,-13.94921 2.1826,-4.77536 4.1944,-9.5557 6.0547,-14.33594 0.7275,-1.84568 1.4014,-3.65236 2.0508,-5.40039 h 37.1523 c 5.6055,0 10.8594,-0.99709 15.7715,-2.99414 4.9121,-2.00194 9.3555,-4.99515 13.3594,-8.98438 l 0.019,-0.0195 0.029,-0.0332 0.02,-0.0156 c 3.9892,-3.99899 6.9726,-8.44633 8.9746,-13.34375 2.0019,-4.90719 2.9922,-10.16118 2.9922,-15.77149 v -58.32422 c 0,-5.39546 -1.0098,-10.54789 -3.0508,-15.46484 -1.9922,-4.83394 -4.9229,-9.23831 -8.7851,-13.23242 l -0.2774,-0.27735 c -3.9209,-3.95016 -8.3164,-6.95411 -13.1797,-8.99023 -4.9511,-2.07029 -10.2344,-3.10547 -15.8789,-3.10547 h -32.4785 c -0.4785,-1.67479 -0.9775,-3.33399 -1.4902,-4.98437 -1.5918,-5.11715 -3.2608,-9.98148 -5.0039,-14.55664 -0.078,-0.21484 -0.1621,-0.42384 -0.2598,-0.62891 -1.748,-4.59469 -3.6719,-9.18363 -5.7715,-13.76367 -0.7471,-1.64549 -1.5176,-3.27248 -2.2891,-4.87891 l 26.2051,-26.58593 c 3.9844,-3.80368 7.0645,-8.11137 9.1739,-12.95507 2.163,-4.9365 3.2617,-10.2188 3.2617,-15.87306 0,-5.57123 -1.0743,-10.85062 -3.2032,-15.83593 -2.0605,-4.83395 -5.0732,-9.24222 -9.0136,-13.2461 l -0.1016,-0.10351 -40.9219,-40.828117 -0.01,-0.006 c -4.0038,-4.003868 -8.4473,-7.026388 -13.3398,-9.091799 -5.0146,-2.119129 -10.2686,-3.16406 -15.791,-3.16406 -5.5224,0 -10.8155,1.053733 -15.8594,3.187502 -4.9267,2.084947 -9.3995,5.141637 -13.3691,9.179687 l -0.01,0.006 -22.9258,22.855457 c -1.4502,-0.830067 -2.8995,-1.635736 -4.3594,-2.421868 -4.3457,-2.353502 -9.0098,-4.658217 -13.9512,-6.914056 -4.7802,-2.182604 -9.5557,-4.199241 -14.3261,-6.054688 -1.8555,-0.717774 -3.6514,-1.401373 -5.4043,-2.050783 V 46.156836 c 0,-5.605419 -0.9922,-10.858439 -2.9942,-15.765619 -2.0117,-4.92672 -5.0078,-9.37894 -8.9824,-13.363278 C 366.58888,13.00942 362.1259,10.00643 357.1943,7.9947298 352.28711,5.9928 347.02824,5.00059 341.42281,5.00059 Z m -22.06055,154.91015 c 17.88186,0 35.3305,11.51071 52.40625,34.58789 -7.61076,-2.96798 -15.46878,-4.51759 -23.57226,-4.51759 -12.18804,0 -22.21178,3.89962 -30.07031,11.63282 l -67.8125,67.75 7.05468,7.11718 -25.74023,25.92383 -43.30859,-43.375 25.73828,-25.74023 7.98047,7.79687 67.43945,-67.3789 c 9.27986,-9.2172 19.2434,-13.79687 29.88476,-13.79687 z m 155.31449,15.4043 c 7.3715,0 14.4459,1.25621 21.0312,3.56054 l -16.7304,18.10938 c -38.011,41.12131 4.8853,64.91339 42.6855,36.68358 l 14.5801,-10.88672 c 1.353,5.16402 2.0762,10.58737 2.0762,16.17579 0,35.15123 -28.4924,63.64648 -63.6465,63.64648 -11.4674,0 -22.2283,-3.03442 -31.5196,-8.34375 l -30.91013,32.81641 c 29.09283,27.85097 58.19533,55.69575 87.29103,83.541 l -39.4727,39.47267 c -27.5262,-28.7026 -55.04157,-57.41895 -82.55075,-86.13867 l -54.19726,57.52929 c -4.11587,7.03822 -11.75159,11.76953 -20.49024,11.76953 -13.09949,0 -23.72461,-10.62032 -23.72461,-23.72266 0,-5.66248 1.99205,-10.86648 5.30469,-14.9453 l -0.0352,-0.0352 0.20899,-0.17773 c 1.71185,-2.05934 3.76508,-3.82277 6.07226,-5.20703 l 60.95703,-52.25586 -75.15624,-78.71679 31.18554,-31.1836 c 28.93049,27.78832 52.41529,50.07971 81.38281,77.82813 l 33.79297,-28.97266 c -7.41704,-10.4078 -11.78125,-23.14296 -11.78125,-36.90039 0,-35.15411 28.49246,-63.64648 63.64646,-63.64648 z m -210.75199,8.16991 5.94336,5.94141 -31,30.99804 -5.9414,-5.93945 z" />
</svg>
