<?xml version="1.0" encoding="UTF-8" standalone="no"?>
<svg
   xmlns="http://www.w3.org/2000/svg"
   height="606"
   width="606"
   version="1.0">
  <path
     d="m 281.10351,3 c -5.39547,0 -10.54691,1.01174 -15.46875,3.05274 -4.82906,1.99706 -9.2344,4.91605 -13.22851,8.77344 l -0.27735,0.27929 c -3.95016,3.92575 -6.95217,8.3145 -8.98828,13.1875 -2.0703,4.94137 -3.11133,10.22954 -3.11133,15.86914 v 32.40625 c -1.66014,0.47363 -3.34376,0.97168 -5.05273,1.49414 -5.13668,1.57225 -10.08891,3.28127 -14.83008,5.12696 -0.21484,0.083 -0.42871,0.17183 -0.63867,0.26953 -4.93649,1.91405 -9.44828,3.81251 -13.53516,5.69726 -1.5869,0.73241 -3.17872,1.49024 -4.77539,2.28125 L 174.6289,65.25586 c -3.80368,-3.98922 -8.10941,-7.06544 -12.95312,-9.17968 -4.94137,-2.15819 -10.22563,-3.25782 -15.875,-3.25782 -5.57124,0 -10.8438,1.08499 -15.83399,3.20899 -4.83394,2.06053 -9.24222,5.07229 -13.24609,9.00781 l -0.10352,0.10352 -40.80078,40.89843 -0.0234,-0.0254 c -3.9697,3.96969 -6.99806,8.43852 -9.09765,13.4043 -2.11912,5.01461 -3.16797,10.2686 -3.16797,15.78125 0,5.52242 1.05373,10.82426 3.1875,15.86328 2.08495,4.93648 5.14164,9.40336 9.17969,13.37305 l 0.01,0.006 22.85742,22.92968 c -0.83007,1.45018 -1.64062,2.89942 -2.42187,4.34961 -2.35349,4.35055 -4.65432,9.0147 -6.91016,13.95118 -2.18748,4.78023 -4.20314,9.56058 -6.05859,14.33593 -0.72265,1.85057 -1.40626,3.65138 -2.05078,5.4043 h -37.1543 c -5.61031,0 -10.86234,0.9922 -15.76953,2.99414 -4.91207,2.00194 -9.35549,4.99027 -13.35938,8.98438 l -0.0254,0.0234 -0.0293,0.0254 -0.004,0.004 c -3.99411,3.99899 -6.97853,8.44829 -8.98047,13.35547 -2.00193,4.90719 -2.99804,10.16118 -2.99804,15.77148 v 58.32813 c 0,5.3857 1.01075,10.53715 3.04687,15.45898 1.99705,4.82907 4.92191,9.2393 8.7793,13.22852 l 0.2832,0.29297 c 3.92086,3.95505 8.31059,6.95216 13.18359,8.98828 4.94137,2.07029 10.22856,3.11133 15.87305,3.11133 h 32.4043 c 0.47363,1.66014 0.96973,3.33888 1.49219,5.05273 1.57225,5.13668 3.28126,10.08305 5.12695,14.82422 1.94334,5.03902 3.91701,9.78031 5.92383,14.21875 0.75195,1.67479 1.55273,3.3838 2.39258,5.12695 l -26.16602,26.09375 c -4.03317,3.8281 -7.1299,8.15922 -9.26367,13.03711 -2.15819,4.94136 -3.25586,10.22466 -3.25586,15.87891 0,5.56636 1.07911,10.83989 3.20312,15.83008 2.06053,4.83395 5.0723,9.24807 9.00782,13.25195 l 40.92187,41.39453 c 0.13184,0.1416 0.27442,0.27929 0.41602,0.40625 l -0.006,0.01 c 4.03805,3.75974 8.48148,6.59279 13.34961,8.51172 4.87789,1.92382 10.03521,2.875 15.47461,2.875 5.45894,0 10.65433,-0.96096 15.55664,-2.89454 4.88277,-1.92381 9.34964,-4.78615 13.37304,-8.59961 0.1709,-0.166 0.33691,-0.33105 0.49805,-0.50195 l 22.83203,-23.19336 c 1.42089,0.81054 2.84083,1.60059 4.26172,2.36719 4.35544,2.34861 9.01859,4.65432 13.95508,6.91016 4.77535,2.18748 9.55668,4.19826 14.33203,6.05859 1.85058,0.72265 3.65139,1.40137 5.4043,2.05078 v 37.15235 c 0,5.61028 0.9961,10.85941 2.99804,15.77148 2.00193,4.91695 5.0059,9.37602 9.00977,13.38476 l -0.0254,0.0234 c 8.02728,8.02727 17.71592,11.98242 29.18555,11.98242 h 58.3281 c 5.39547,0 10.54691,-1.01075 15.46875,-3.04687 4.82418,-2.00194 9.23441,-4.92679 13.22852,-8.7793 l 0.27734,-0.2832 c 3.95993,-3.92575 6.95314,-8.31547 8.99414,-13.18359 2.07029,-4.94625 3.11133,-10.23344 3.11133,-15.87305 v -32.41211 c 1.66014,-0.47363 3.34376,-0.97168 5.05273,-1.49414 5.1318,-1.57225 10.07914,-3.2754 14.82031,-5.1211 5.04391,-1.94821 9.79497,-3.92579 14.23829,-5.92773 1.66014,-0.75194 3.36817,-1.54883 5.11132,-2.38867 l 26.09375,26.16211 c 3.81345,4.02341 8.18755,7.12404 13.13868,9.26758 4.99996,2.1533 10.32231,3.25586 15.96679,3.25586 5.76656,0 11.09965,-1.07816 16.03125,-3.20704 4.88278,-2.0996 9.23344,-5.19437 13.09571,-9.24218 L 530.6875,500.0375 c 0.1416,-0.13672 0.27831,-0.2832 0.41015,-0.41992 v 0.006 c 3.76462,-4.03318 6.5967,-8.48148 8.51563,-13.34961 1.91893,-4.88277 2.87109,-10.0352 2.87109,-15.47461 0,-5.45894 -0.95704,-10.65433 -2.89062,-15.55664 -1.92869,-4.88277 -4.79007,-9.34963 -8.59375,-13.37305 -0.17578,-0.17578 -0.33692,-0.33691 -0.50782,-0.49804 L 507.29882,418.5396 c 0.81054,-1.42089 1.60157,-2.84181 2.37305,-4.26758 2.34373,-4.35055 4.64358,-9.01274 6.9043,-13.94922 2.1826,-4.77536 4.19434,-9.5557 6.05469,-14.33594 0.72752,-1.84568 1.40138,-3.65236 2.05078,-5.40039 h 37.15234 c 5.60543,0 10.85941,-0.99709 15.77148,-2.99414 4.91207,-2.00194 9.3555,-4.99515 13.35938,-8.98437 l 0.0195,-0.0195 0.0293,-0.0332 0.0195,-0.0156 c 3.98923,-3.99899 6.97267,-8.44633 8.97461,-13.34375 2.00194,-4.90719 2.99219,-10.16118 2.99219,-15.77149 V 281.1002 c 0,-5.39546 -1.00979,-10.54789 -3.05079,-15.46484 -1.99217,-4.83394 -4.92288,-9.23831 -8.78515,-13.23242 l -0.27735,-0.27735 c -3.92087,-3.95016 -8.31644,-6.95411 -13.17968,-8.99023 -4.95113,-2.07029 -10.23442,-3.10547 -15.87891,-3.10547 h -32.47852 c -0.47851,-1.67479 -0.97754,-3.33399 -1.49023,-4.98437 -1.59178,-5.11715 -3.26076,-9.98148 -5.00391,-14.55664 -0.0781,-0.21484 -0.16206,-0.42384 -0.25976,-0.62891 -1.74803,-4.59469 -3.67189,-9.18363 -5.77149,-13.76367 -0.74706,-1.64549 -1.51758,-3.27248 -2.28906,-4.87891 l 26.20508,-26.58594 c 3.98435,-3.80368 7.06448,-8.11136 9.17383,-12.95507 2.16307,-4.93649 3.26172,-10.2188 3.26172,-15.87305 0,-5.57124 -1.07424,-10.85063 -3.20313,-15.83594 -2.06053,-4.83394 -5.07327,-9.24222 -9.01367,-13.24609 l -0.10156,-0.10352 -40.92188,-40.82812 -0.01,-0.006 c -4.00388,-4.00387 -8.44731,-7.02639 -13.33985,-9.0918 -5.01461,-2.11913 -10.26859,-3.16406 -15.79101,-3.16406 -5.52241,0 -10.81548,1.05373 -15.85938,3.1875 -4.92672,2.08495 -9.39945,5.14164 -13.36914,9.17969 l -0.01,0.006 -22.92578,22.85546 c -1.4502,-0.83007 -2.89943,-1.63574 -4.35938,-2.42187 -4.34567,-2.3535 -9.00981,-4.65822 -13.95117,-6.91406 -4.78024,-2.1826 -9.5557,-4.19924 -14.32617,-6.05469 -1.85545,-0.71777 -3.65138,-1.40137 -5.4043,-2.05078 V 44.15684 c 0,-5.60542 -0.9922,-10.85844 -2.99414,-15.76562 -2.0117,-4.92672 -5.00784,-9.37894 -8.98242,-13.36328 C 364.58933,11.00942 360.12637,8.00643 355.19477,5.99473 350.28758,3.9928 345.02871,3.00059 339.42328,3.00059 Z m -22.06055,154.91016 c 17.88186,0 35.3305,11.51072 52.40625,34.58789 -7.61076,-2.96798 -15.46878,-4.51758 -23.57226,-4.51758 -12.18804,0 -22.21178,3.89961 -30.07031,11.63282 l -67.8125,67.75 7.05468,7.11718 L 171.30859,300.4043 128,257.0293 l 25.73828,-25.74023 7.98047,7.79687 67.43945,-67.3789 c 9.27986,-9.21721 19.2434,-13.79688 29.88476,-13.79688 z m 155.31446,15.4043 c 7.37149,0 14.44593,1.25622 21.03125,3.56054 l -16.73047,18.10938 c -38.01097,41.12132 4.88538,64.9134 42.68555,36.68359 l 14.58007,-10.88672 c 1.353,5.16402 2.07618,10.58737 2.07618,16.17579 0,35.15123 -28.4924,63.64648 -63.64649,63.64648 -11.46738,0 -22.22828,-3.03442 -31.51953,-8.34375 l -30.91016,32.81641 c 29.09285,27.85097 58.19535,55.69575 87.29102,83.54101 l -39.47266,39.47266 c -27.52626,-28.7026 -55.0416,-57.41895 -82.55078,-86.13867 l -54.19726,57.52929 c -4.11587,7.03822 -11.75159,11.76953 -20.49024,11.76953 -13.09949,0 -23.72461,-10.62032 -23.72461,-23.72265 0,-5.66248 1.99205,-10.86649 5.30469,-14.94531 l -0.0352,-0.0352 0.20899,-0.17774 c 1.71185,-2.05934 3.76508,-3.82277 6.07226,-5.20703 l 60.95703,-52.25586 -75.15624,-78.71679 31.18554,-31.1836 c 28.93049,27.78832 52.41529,50.07971 81.38281,77.82813 l 33.79297,-28.97266 c -7.41704,-10.4078 -11.78125,-23.14296 -11.78125,-36.90039 0,-35.15411 28.49241,-63.64648 63.64649,-63.64648 z m -210.75196,8.16992 5.94336,5.94141 -31,30.99804 -5.9414,-5.93945 z"
     style="fill:#000000;fill-opacity:1;stroke:none;stroke-width:4.883;stroke-miterlimit:4;stroke-dasharray:none;stroke-opacity:1"
     id="path2787" />
</svg>
