<?xml version="1.0" encoding="UTF-8" standalone="no"?>
<svg xmlns="http://www.w3.org/2000/svg"
   height="900"
   width="900"
   version="1.0">
  <path
     d="m 316.60686,181.28766 c -32.6608,16.18096 -61.14144,37.6739 -84.90976,62.92428 11.84064,0.22804 23.7499,-0.3025 35.66744,-1.64192 13.75762,-22.16822 30.23936,-42.77956 49.24232,-61.28236 z m 28.15294,-12.21204 c 25.36502,-1.19638 50.57426,0.53156 75.13062,5.15242 8.47352,-7.59414 16.38518,-15.71526 23.76716,-24.20746 -33.0432,0.67438 -66.4194,6.8599 -98.89778,19.05504 z m -15.57864,27.53628 c -13.1049,12.88902 -24.8911,26.86296 -35.3276,41.68928 15.83462,-3.38464 31.58124,-8.26408 47.06708,-14.62576 z m 18.37302,-7.90164 11.61512,26.77684 c 14.25414,-7.08842 27.61392,-15.33028 40.0728,-24.46776 -17.01904,-2.21458 -34.31298,-3.02616 -51.68792,-2.30908 z M 469.0435,150.59034 c -7.8687,10.1539 -16.4248,19.86014 -25.6502,28.97564 45.24056,12.03788 87.57248,33.79162 123.71792,63.921 13.41018,-16.22862 25.53636,-33.3757 36.35246,-51.26284 C 562.761,168.04176 516.62224,153.6743 469.0435,150.59034 Z M 215.03148,263.43138 c -29.57998,37.33256 -49.8176,81.14668 -59.17694,127.5871 20.74278,4.00894 41.83736,6.53236 63.10956,7.4374 2.10936,-47.1298 14.7107,-93.16166 36.38834,-134.73364 -13.49788,0.83982 -26.9799,0.72124 -40.32096,-0.29086 z m 210.6647,-67.80924 c -17.60934,14.75618 -37.1863,27.59866 -58.59278,38.15578 l 53.59872,123.56334 c 51.96014,-24.6312 96.80842,-58.53212 133.3854,-98.80344 C 516.9189,227.5596 472.74956,206.03306 425.69618,195.62214 Z M 279.1984,261.21302 c -24.18642,41.85286 -38.19126,89.08252 -40.38054,137.62352 54.6638,-0.22688 110.15748,-10.96416 163.61072,-33.36428 L 348.87962,242.02358 c -22.84862,9.41922 -46.2282,15.78048 -69.68122,19.18944 z m 341.08734,-58.16414 c -11.36312,18.75076 -24.13724,36.70494 -38.22108,53.70842 30.2824,28.65552 55.36258,63.7081 72.95578,104.26646 3.63536,8.38076 6.89918,16.82622 9.76228,25.33238 20.22096,-20.81052 38.79126,-42.93344 55.61364,-66.22616 C 697.0573,271.44238 662.0925,231.80814 620.28574,203.04888 Z M 152.54338,410.71274 c -6.6935,50.22488 -0.743,102.72194 19.73454,152.76378 28.51824,3.13168 57.37642,4.2611 86.34892,3.21566 -4.96138,-8.9544 -9.53174,-18.2046 -13.68764,-27.78538 -17.02228,-39.24218 -25.48194,-80.07874 -26.2238,-120.45002 -22.30032,-0.9286 -44.4225,-3.55616 -66.17202,-7.74404 z M 568.95876,271.77568 C 530.5138,314.1887 483.34354,349.86044 428.66108,375.68942 l 58.99588,136.0057 c 60.97386,-28.19924 114.98976,-65.4362 161.17574,-109.49566 -3.35652,-11.1733 -7.40448,-22.25268 -12.16042,-33.21674 -16.382,-37.7661 -39.64678,-70.43896 -67.71352,-97.20704 z M 238.54428,418.7801 c 0.82404,37.59238 8.8218,75.62078 24.68574,112.1926 5.21782,12.02886 11.14212,23.52782 17.68916,34.49734 63.28924,-4.67494 126.85564,-19.57316 188.46426,-45.64394 L 410.38754,383.8204 C 354.28098,407.36632 295.9725,418.617 238.54428,418.7801 Z m 490.98004,-77.60708 c -17.70816,23.57524 -37.14872,45.98366 -58.28576,66.97648 13.81242,53.39448 13.05102,108.14238 -0.25228,159.4579 26.00572,-18.81628 50.57524,-39.11858 73.56918,-60.79822 10.45986,-53.88418 6.2211,-111.12814 -15.03114,-165.63616 z M 181.79964,584.485 c 26.13424,52.2056 65.81938,93.7121 112.85316,122.11336 30.9595,-2.47982 61.94094,-6.92596 92.82488,-13.42318 -46.58802,-24.80864 -87.2216,-61.10744 -117.14476,-107.03518 -29.67364,1.59462 -59.26016,1.0047 -88.53328,-1.655 z M 654.55074,424.17662 C 608.5197,466.56034 555.30526,502.5596 495.64082,530.1006 l 48.32588,111.4077 c 35.564,-16.24574 69.26784,-34.8695 100.95244,-55.78096 0.01,-0.028 0.0228,-0.0542 0.0324,-0.0822 17.59946,-51.04974 21.56702,-106.81396 9.59914,-161.46852 z m -361.28718,160.3281 c 32.03308,45.41384 75.55234,80.01096 124.77754,101.54422 36.23046,-9.24344 72.17676,-21.39208 107.62718,-36.46698 L 477.3424,538.17426 c -60.17422,25.48286 -122.20356,40.67004 -184.07884,46.33046 z m 442.24598,-42.63774 c -23.36664,20.3214 -48.10786,39.36216 -74.2263,56.92754 -16.58818,44.80664 -43.14788,85.98486 -78.13494,120.0052 75.0906,-37.12486 128.25688,-102.14358 152.36124,-176.93274 z M 326.51924,723.3644 c 70.12004,31.632 152.10454,36.35438 228.87748,7.47326 -47.8934,2.27988 -95.23042,-6.0954 -138.6592,-23.9215 -29.96504,7.37004 -60.08734,12.81658 -90.21828,16.44824 z m 305.2697,-105.7127 c -25.46584,15.47146 -52.09264,29.6035 -79.8384,42.2621 l 18.80308,43.3475 c 25.4216,-25.01748 45.96212,-54.06404 61.03532,-85.6096 z m -181.73026,80.32884 c 32.78428,10.13916 67.39844,14.7455 102.37166,13.29708 L 533.62726,667.9301 c -27.5931,11.73938 -55.46988,21.77112 -83.56858,30.05044 z"
     style="fill:#eeeeee;fill-opacity:1;stroke:none;stroke-width:2;stroke-linecap:round;stroke-linejoin:round;stroke-miterlimit:4;stroke-dasharray:none;stroke-opacity:1"
     id="path2862" />
  <path
     d="M 450,0 C 296.44174,0 160.77984,77.047236 79.5625,194.5625 l 87,50.25 C 230.1847,157.10508 333.43928,100 450,100 c 116.56072,0 219.8153,57.10508 283.4375,144.8125 l 87,-50.25 C 739.22016,77.047236 603.55826,0 450,0 Z"
     style="fill:#990000;fill-opacity:1;stroke:none;stroke-width:20;stroke-linecap:round;stroke-linejoin:round;stroke-miterlimit:4;stroke-dasharray:none;stroke-opacity:1"
     id="path4005" />
  <path
     d="M 32.1875,282.75 C 11.448392,334.46664 0,390.90008 0,450 0,681.50364 175.0975,872.35712 400,897.25 V 796.375 C 230.47074,772.0781 100,626.21538 100,450 c 0,-40.89156 7.03061,-80.13628 19.9375,-116.625 z"
     style="fill:#006699;fill-opacity:1;stroke:none;stroke-width:20;stroke-linecap:round;stroke-linejoin:round;stroke-miterlimit:4;stroke-dasharray:none;stroke-opacity:1"
     id="path4003" />
  <path
     d="m 867.8125,282.75 -87.75,50.625 C 792.9694,369.86372 800,409.10844 800,450 800,626.21536 669.52928,772.0781 500,796.375 V 897.25 C 724.90248,872.35712 899.99998,681.50364 900,450 900,390.90008 888.5516,334.46664 867.8125,282.75 Z"
     style="fill:#006699;fill-opacity:1;stroke:none;stroke-width:20;stroke-linecap:round;stroke-linejoin:round;stroke-miterlimit:4;stroke-dasharray:none;stroke-opacity:1"
     id="path3918" />
  <path
     style="fill:#339966;fill-opacity:1;stroke:none;stroke-width:2.84831;stroke-opacity:1"
     id="path2710"
     d="m 458.42842,339.51941 c -7.61076,-2.96798 -15.46931,-4.51746 -23.57279,-4.51746 -12.18804,0 -22.21129,3.89938 -30.06982,11.63259 l -67.81306,67.75038 7.05533,7.11798 -25.74039,25.92265 -43.30885,-43.37439 25.73752,-25.74033 7.98101,7.79588 67.43993,-67.37725 c 9.27986,-9.21721 19.24331,-13.79733 29.88467,-13.79733 17.88186,0 35.3307,11.51011 52.40645,34.58728 z m 102.90732,-19.18352 c 7.37149,0 14.44674,1.25611 21.03206,3.56043 L 565.63674,342.006 c -38.01097,41.12132 4.88488,64.91346 42.68505,36.68365 l 14.58059,-10.88632 c 1.353,5.16402 2.07646,10.58724 2.07646,16.17566 0,35.15123 -28.49187,63.64596 -63.64596,63.64596 -11.46738,0 -22.22837,-3.03346 -31.51962,-8.34279 l -30.91008,32.81563 c 29.09285,27.85097 58.19426,55.69626 87.28993,83.54152 l -39.47216,39.47216 C 519.19469,566.40887 491.67981,537.692 464.17063,508.97228 l -54.19799,57.53058 c -4.11587,7.03822 -11.75224,11.76932 -20.49089,11.76932 -13.09949,0 -23.72378,-10.62144 -23.72378,-23.72377 0,-5.66248 1.99098,-10.86637 5.30362,-14.94519 l -0.0341,-0.0341 0.2079,-0.17944 c 1.71185,-2.05934 3.76546,-3.82248 6.07264,-5.20674 l 60.95712,-52.25548 -75.15604,-78.71646 31.18634,-31.18351 c 28.93049,27.78832 52.41501,50.07935 81.38253,77.82777 L 509.47051,420.882 c -7.41704,-10.4078 -11.78068,-23.14269 -11.78068,-36.90012 0,-35.15411 28.49183,-63.64594 63.64591,-63.64594 z m -204.80919,14.11063 -30.99839,30.99839 -5.94162,-5.93877 30.99839,-31.00124 z"
     clip-rule="evenodd"
     fill-rule="evenodd" />
  <path
     style="fill:#339966;fill-opacity:1;stroke:none;stroke-width:4.883;stroke-miterlimit:4;stroke-dasharray:none;stroke-opacity:1"
     id="path2752"
     d="m 628.37815,241.35433 c -1.61132,-1.61131 -3.27146,-2.77341 -4.98043,-3.49606 -1.60155,-0.67871 -3.47165,-1.01073 -5.61519,-1.01073 -2.1533,0 -4.06247,0.34179 -5.68355,1.03026 -1.67967,0.708 -3.30075,1.85057 -4.85347,3.42771 l -0.10254,0.10254 -30.30737,30.21459 c -4.54098,4.51657 -11.55753,5.01949 -16.65026,1.52831 -3.56442,-2.30467 -7.36322,-4.52633 -11.34756,-6.67963 -4.2236,-2.28514 -8.36419,-4.3359 -12.40713,-6.19136 -4.21383,-1.92381 -8.51555,-3.73532 -12.8954,-5.43452 -3.96969,-1.54296 -8.39349,-3.11521 -13.21767,-4.707 -5.52241,-1.82127 -9.03313,-6.95795 -9.03313,-12.48036 v 0 -46.47424 c 0,-2.22654 -0.35155,-4.1943 -1.04979,-5.90815 -0.69824,-1.69432 -1.76268,-3.27146 -3.2324,-4.73629 -1.43065,-1.43065 -2.98337,-2.49021 -4.68258,-3.17869 -1.70897,-0.69823 -3.68161,-1.04491 -5.91303,-1.04491 h -58.32472 c -2.06542,0 -3.89646,0.33203 -5.49801,0.99609 -1.6992,0.69823 -3.36423,1.8408 -5.00972,3.43259 l -0.0195,0.0146 c -1.4453,1.44531 -2.50975,2.98338 -3.19334,4.61911 -0.70312,1.67479 -1.05467,3.60837 -1.05467,5.80561 v 42.54849 c 0,6.46967 -4.67282,11.8456 -10.82511,12.94423 -4.67282,1.11327 -8.98919,2.2656 -12.91982,3.47165 -4.3066,1.31835 -8.63762,2.81736 -12.97841,4.51168 -0.21484,0.083 -0.42968,0.16113 -0.64452,0.22949 -3.79392,1.4746 -7.79291,3.18357 -11.99209,5.12203 -4.26755,1.96776 -8.24213,3.96481 -11.92374,5.97163 -5.19038,2.82713 -11.4501,1.77733 -15.45397,-2.16307 l -0.005,0.005 -33.56418,-33.08078 -0.30762,-0.30762 v 0.005 c -1.43065,-1.51366 -2.93455,-2.62205 -4.51168,-3.31052 -1.51366,-0.65918 -3.30564,-0.99609 -5.39546,-0.99609 -2.07518,0 -3.93064,0.35156 -5.56148,1.0498 -1.7871,0.76171 -3.49607,1.95311 -5.13668,3.55954 l -0.01,0.01 -40.71744,40.81022 -0.0244,0.0293 0.0244,0.0244 c -1.66991,1.66991 -2.85154,3.33005 -3.54977,4.98043 -0.67871,1.60155 -1.01562,3.47165 -1.01562,5.6103 0,2.15819 0.34179,4.06247 1.03026,5.69332 0.70801,1.67479 1.84569,3.29587 3.42771,4.84859 l 0.10254,0.10254 30.2146,30.31225 c 4.51656,4.54098 5.01949,11.55753 1.52831,16.65026 -2.30467,3.5693 -4.52634,7.36322 -6.67476,11.34756 -2.28513,4.22848 -4.3359,8.35931 -6.19135,12.41201 -1.9287,4.20895 -3.7402,8.51556 -5.44429,12.8954 -1.54296,3.96481 -3.11033,8.38861 -4.70211,13.21279 -1.82128,5.52729 -6.96284,9.03313 -12.48037,9.03313 v 0.005 h -46.45926 c -2.23631,0 -4.19919,0.34667 -5.91304,1.04003 -1.68944,0.69335 -3.25193,1.74803 -4.6777,3.17868 l -0.0537,0.0586 v 0 c -1.43065,1.43065 -2.49021,2.98825 -3.18357,4.67769 -0.69823,1.71386 -1.04003,3.68161 -1.04003,5.91304 v 58.3296 c 0,2.06053 0.32715,3.89646 0.99121,5.49312 0.70312,1.69921 1.84569,3.36423 3.43747,5.01461 l 0.0147,0.01 c 1.44042,1.4453 2.98337,2.51462 4.61422,3.19333 1.67967,0.70312 3.61325,1.05468 5.8105,1.05468 h 42.5436 c 6.46967,0 11.8456,4.67281 12.94423,10.82999 1.11327,4.66793 2.2656,8.98918 3.47165,12.91982 1.32323,4.3066 2.81736,8.63274 4.51168,12.97352 1.59178,4.13571 3.39841,8.43255 5.41011,12.88564 2.05565,4.55563 4.06735,8.70598 6.02046,12.46084 2.71971,5.20503 1.59179,11.40615 -2.37303,15.34655 l 0.01,0.01 -33.08567,32.98801 -0.20996,0.20508 h 0.005 c -1.51365,1.43553 -2.62204,2.93943 -3.30563,4.51168 -0.66406,1.51366 -0.99609,3.31052 -0.99609,5.40034 0,2.07518 0.35156,3.92575 1.04492,5.5566 0.76171,1.7871 1.9531,3.50095 3.56442,5.13668 l 40.57096,41.0397 c 1.5869,1.46972 3.24216,2.54393 4.97554,3.22263 1.73827,0.68847 3.71091,1.02538 5.91792,1.02538 2.22655,0 4.23337,-0.34667 6.00093,-1.04491 1.69921,-0.66894 3.29587,-1.69432 4.77535,-3.08103 l 30.073,-30.55151 c 4.5361,-4.60933 11.64053,-5.16109 16.78697,-1.60643 3.55955,2.2949 7.34369,4.5068 11.31827,6.65034 4.22848,2.29002 8.35931,4.34078 12.41201,6.19135 4.20895,1.93358 8.51556,3.74509 12.8954,5.44429 3.96481,1.53808 8.38372,3.11033 13.21279,4.70211 5.52729,1.82128 9.03313,6.96284 9.03313,12.48037 h 0.005 v 46.47423 c 0,2.22655 0.34667,4.1943 1.04491,5.90816 0.69336,1.69432 1.74803,3.25192 3.17869,4.68258 l 0.0244,0.0293 0.0244,-0.0293 c 2.86619,2.86618 6.38179,4.27731 10.59074,4.27731 h 58.31984 c 2.07029,0 3.90133,-0.32715 5.50288,-0.99121 1.69921,-0.70312 3.36423,-1.84569 5.00484,-3.43747 l 0.0195,-0.0146 c 1.44042,-1.4453 2.50975,-2.98337 3.19334,-4.61422 0.708,-1.67967 1.05956,-3.60837 1.05956,-5.80561 v -42.55337 c 0,-6.46479 4.66305,-11.84561 10.82511,-12.93935 4.66304,-1.11327 8.9843,-2.27049 12.91981,-3.47165 4.30173,-1.32323 8.63275,-2.81736 12.96865,-4.5068 4.14059,-1.59666 8.44231,-3.40329 12.90517,-5.41499 4.54097,-2.05565 8.69621,-4.06247 12.43642,-6.01558 5.2148,-2.7197 11.41592,-1.5869 15.35632,2.37303 l 0.01,-0.01 32.98802,33.08079 0.20019,0.20996 v -0.005 c 1.45018,1.52342 2.95408,2.62693 4.52145,3.31052 1.53319,0.65917 3.38376,0.99608 5.59077,0.99608 2.16307,0 4.04294,-0.35156 5.66402,-1.0498 1.63085,-0.708 3.14939,-1.79686 4.53121,-3.2568 0.15137,-0.16602 0.3125,-0.32715 0.48828,-0.48828 l 40.86393,-40.3903 c 1.45994,-1.58202 2.53904,-3.24216 3.21286,-4.97554 0.68847,-1.73827 1.03026,-3.71579 1.03026,-5.92281 0,-2.22654 -0.34179,-4.23336 -1.04003,-6.00092 -0.6787,-1.69921 -1.6992,-3.29099 -3.09079,-4.77047 l -30.54663,-30.07788 c -4.61422,-4.5361 -5.16109,-11.63565 -1.61131,-16.78698 2.29978,-3.55954 4.51168,-7.34369 6.65522,-11.31338 2.29002,-4.2236 4.34078,-8.35931 6.19135,-12.41201 1.9287,-4.20895 3.74021,-8.51556 5.44429,-12.8954 1.53319,-3.96481 3.11033,-8.38861 4.70211,-13.21767 1.82128,-5.5273 6.96284,-9.03313 12.48525,-9.03313 v -0.005 h 46.46447 c 2.23143,0 4.20407,-0.34668 5.91304,-1.04491 1.68944,-0.69336 3.25192,-1.74804 4.68258,-3.17381 l 0.0488,-0.0537 v 0 c 1.43066,-1.43553 2.49998,-2.99314 3.18357,-4.68746 0.69824,-1.70897 1.04003,-3.67673 1.04003,-5.90815 v -58.32961 c 0,-2.06053 -0.32226,-3.89645 -0.9912,-5.498 -0.69824,-1.69432 -1.84081,-3.36423 -3.43259,-5.01461 l -0.0195,-0.0146 c -1.44042,-1.4453 -2.98337,-2.50974 -4.61422,-3.19333 -1.66991,-0.70312 -3.60349,-1.05468 -5.80562,-1.05468 h -42.5436 c -6.55268,0 -11.97744,-4.78023 -12.97841,-11.04483 -1.03026,-4.11618 -2.19236,-8.29095 -3.51071,-12.52919 -1.26952,-4.06735 -2.75388,-8.36908 -4.49215,-12.91494 -0.0879,-0.21972 -0.16113,-0.44433 -0.22949,-0.66894 -1.65038,-4.32125 -3.33982,-8.38372 -5.0732,-12.1874 -1.87987,-4.11618 -3.87204,-8.09564 -5.9814,-11.94326 -2.82224,-5.19039 -1.77245,-11.4501 2.16307,-15.45398 v -0.005 l 33.08079,-33.56418 c 0.10253,-0.10254 0.20019,-0.20508 0.30761,-0.30761 v 0 c 1.51854,-1.43066 2.62205,-2.93455 3.31052,-4.5068 0.65917,-1.51366 1.00097,-3.30564 1.00097,-5.39547 0,-2.07518 -0.35156,-3.93063 -1.0498,-5.56148 -0.76171,-1.78709 -1.95311,-3.49606 -3.56442,-5.13667 l -0.01,-0.01 -40.8151,-40.71744 z m 5.1855,-27.64137 c 4.89254,2.06541 9.33586,5.08785 13.33974,9.09172 l 0.01,0.005 40.92252,40.82975 0.10254,0.10254 c 3.9404,4.00387 6.95307,8.41302 9.0136,13.24696 2.12889,4.98531 3.2031,10.26359 3.2031,15.83483 0,5.65425 -1.09863,10.93741 -3.2617,15.8739 -2.10935,4.84371 -5.19038,9.15031 -9.17473,12.95399 l -26.20584,26.5867 c 0.77148,1.60643 1.54296,3.2324 2.29002,4.87789 2.0996,4.58004 4.02341,9.16985 5.77144,13.76454 0.0977,0.20507 0.18066,0.41503 0.25879,0.62987 1.74315,4.57516 3.41306,9.4384 5.00484,14.55555 0.51269,1.65038 1.01073,3.31052 1.48925,4.98531 h 32.4802 c 5.64449,0 10.92765,1.03515 15.87878,3.10544 4.86324,2.03612 9.25773,5.03903 13.1786,8.98919 l 0.27832,0.27832 c 3.86227,3.99411 6.79194,8.39837 8.78411,13.23231 2.041,4.91695 3.05173,10.06828 3.05173,15.46374 v 58.32472 c 0,5.61031 -0.9912,10.86417 -2.99314,15.77136 -2.00194,4.89742 -4.98531,9.34563 -8.97454,13.34462 l -0.0195,0.0146 -0.0293,0.0342 -0.0195,0.0195 c -4.00388,3.98922 -8.4472,6.98236 -13.35927,8.9843 -4.91207,1.99705 -10.16593,2.99314 -15.77136,2.99314 h -37.15302 c -0.6494,1.74803 -1.32323,3.55466 -2.05076,5.40034 -1.86034,4.78024 -3.87204,9.56047 -6.05464,14.33583 -2.26072,4.93648 -4.56051,9.59953 -6.90424,13.95008 -0.77148,1.42577 -1.56249,2.84665 -2.37303,4.26754 l 23.19317,22.83185 c 0.1709,0.16113 0.33203,0.32226 0.50781,0.49804 3.80368,4.0234 6.66499,8.49114 8.59368,13.37391 1.93358,4.90231 2.8906,10.09758 2.8906,15.55652 0,5.43941 -0.95214,10.59073 -2.87107,15.4735 -1.91893,4.86813 -4.75093,9.31633 -8.51555,13.34951 v -0.005 c -0.13184,0.13672 -0.26855,0.2832 -0.41015,0.41992 l -41.16178,40.68815 c -3.86227,4.04781 -8.21282,7.14349 -13.0956,9.24309 -4.9316,2.12888 -10.26358,3.20798 -16.03014,3.20798 -5.64448,0 -10.96671,-1.10351 -15.96667,-3.25681 -4.95113,-2.14354 -9.32609,-5.2441 -13.13954,-9.26751 L 552.17789,661.512 c -1.74315,0.83984 -3.45213,1.63573 -5.11227,2.38767 -4.44332,2.00194 -9.19426,3.97946 -14.23816,5.92769 -4.74118,1.84569 -9.68742,3.54978 -14.81922,5.12203 -1.70897,0.52246 -3.39353,1.0205 -5.05367,1.49413 v 32.41184 c 0,5.63961 -1.04003,10.92765 -3.11032,15.8739 -2.041,4.86812 -5.03414,9.25773 -8.99407,13.18348 l -0.27832,0.2832 c -3.99411,3.85251 -8.40325,6.77729 -13.22743,8.77923 -4.92184,2.03612 -10.07316,3.04685 -15.46863,3.04685 h -58.3296 c -11.46963,0 -21.15705,-3.95505 -29.18433,-11.98232 l 0.0244,-0.0244 c -4.00387,-4.00875 -7.00678,-8.46673 -9.00871,-13.38368 -2.00194,-4.91207 -2.99803,-10.16105 -2.99803,-15.77135 v -37.15302 c -1.75291,-0.64941 -3.55465,-1.32812 -5.40523,-2.05077 -4.77535,-1.86033 -9.55558,-3.87204 -14.33093,-6.05952 -4.93649,-2.25584 -9.59953,-4.56051 -13.95497,-6.90912 -1.42089,-0.7666 -2.84177,-1.55761 -4.26266,-2.36815 l -22.83184,23.19317 c -0.16114,0.1709 -0.32715,0.33692 -0.49805,0.50293 -4.0234,3.81345 -8.49114,6.67475 -13.37391,8.59856 -4.90231,1.93358 -10.09758,2.89549 -15.55652,2.89549 -5.4394,0 -10.59561,-0.95214 -15.4735,-2.87596 -4.86813,-1.91893 -9.31145,-4.75093 -13.3495,-8.51067 l 0.005,-0.01 c -0.1416,-0.12696 -0.2832,-0.26367 -0.41504,-0.40527 l -40.92251,-41.39615 c -3.93552,-4.00388 -6.94819,-8.4179 -9.00872,-13.25185 -2.12401,-4.99019 -3.2031,-10.26359 -3.2031,-15.82995 0,-5.65425 1.09862,-10.93741 3.25681,-15.87877 2.13377,-4.87789 5.22945,-9.20891 9.26262,-13.03701 l 26.16678,-26.09353 c -0.83984,-1.74315 -1.64061,-3.45213 -2.39256,-5.12692 -2.00682,-4.43844 -3.97946,-9.17961 -5.9228,-14.21863 -1.84569,-4.74117 -3.55466,-9.68742 -5.12691,-14.8241 -0.52246,-1.71385 -1.0205,-3.39353 -1.49413,-5.05367 h -32.40248 c -5.64449,0 -10.93253,-1.04003 -15.8739,-3.11032 -4.873,-2.03612 -9.26262,-5.03414 -13.18348,-8.98919 l -0.2832,-0.29297 c -3.85739,-3.98922 -6.78218,-8.39836 -8.77923,-13.22743 -2.03612,-4.92183 -3.04685,-10.07316 -3.04685,-15.45886 v -58.3296 c 0,-5.6103 0.99609,-10.86417 2.99802,-15.77136 2.00194,-4.90718 4.98531,-9.35539 8.97942,-13.35438 l 0.005,-0.005 0.0293,-0.0244 0.0244,-0.0244 c 4.00388,-3.99411 8.4472,-6.98236 13.35927,-8.9843 4.90719,-2.00194 10.16105,-2.99314 15.77136,-2.99314 h 37.15302 c 0.64452,-1.75292 1.32811,-3.55466 2.05076,-5.40523 1.85545,-4.77535 3.87204,-9.55559 6.05952,-14.33582 2.25584,-4.93648 4.55563,-9.59953 6.90912,-13.95008 0.78125,-1.45019 1.59179,-2.90037 2.42186,-4.35055 l -22.85626,-22.9295 -0.01,-0.005 c -4.03805,-3.96969 -7.09466,-8.43743 -9.17961,-13.37391 -2.13377,-5.03902 -3.18845,-10.34171 -3.18845,-15.86413 0,-5.51265 1.0498,-10.76651 3.16892,-15.78112 2.09959,-4.96578 5.12691,-9.43352 9.09661,-13.40321 l 0.0244,0.0244 40.80045,-40.8981 0.10254,-0.10254 c 4.00387,-3.93552 8.41302,-6.94819 13.24696,-9.00872 4.99019,-2.124 10.26359,-3.20798 15.83483,-3.20798 5.64937,0 10.93253,1.09862 15.8739,3.25681 4.84371,2.11424 9.15031,5.19039 12.95399,9.17961 l 26.56717,26.18143 c 1.59667,-0.79101 3.18845,-1.54784 4.77535,-2.28025 4.08688,-1.88475 8.59856,-3.78415 13.53505,-5.6982 0.20996,-0.0977 0.4248,-0.18555 0.63964,-0.26855 4.74117,-1.84569 9.6923,-3.55466 14.82898,-5.12691 1.70897,-0.52246 3.39353,-1.0205 5.05367,-1.49413 v -32.40697 c 0,-5.6396 1.04003,-10.92764 3.11033,-15.86901 2.03611,-4.873 5.03902,-9.26262 8.98918,-13.18837 l 0.27832,-0.27831 c 3.99411,-3.85739 8.39837,-6.77729 13.22743,-8.77435 4.92184,-2.041 10.07316,-3.05173 15.46863,-3.05173 h 58.31983 c 5.60543,0 10.86417,0.9912 15.77136,2.99314 4.9316,2.0117 9.39445,5.01461 13.41786,9.03313 3.97458,3.98434 6.9726,8.43743 8.9843,13.36415 2.00194,4.90718 2.99314,10.16105 2.99314,15.76647 v 37.1579 c 1.75292,0.64941 3.54978,1.333 5.40523,2.05077 4.77047,1.85545 9.54582,3.87204 14.32606,6.05464 4.94136,2.25584 9.60441,4.5605 13.95008,6.914 1.45995,0.78613 2.91013,1.59179 4.36031,2.42186 l 22.92462,-22.85626 0.01,-0.005 c 3.96969,-4.03805 8.44231,-7.09466 13.36903,-9.17961 5.0439,-2.13377 10.33683,-3.18845 15.85924,-3.18845 5.52242,0 10.77628,1.04491 15.79089,3.16404 z" />
</svg>
